<?xml version="1.0" encoding="UTF-8"?><svg id="Layer_1" xmlns="http://www.w3.org/2000/svg" viewBox="0 0 460.12 74.79"><defs><style>.cls-1{fill:#ffde17;}.cls-2{fill:#fbb040;}.cls-3{fill:#b93739;}.cls-4{fill:#414042;}</style></defs><polygon class="cls-2" points="239.6 71.72 221.13 63.18 221.13 46.23 238.75 46.23 239.6 71.72"/><g><path class="cls-4" d="m35.93,70.27v-23.15c0-1.32.11-2.58.17-2.75-.06.17-.38.93-.71,1.54l-8.96,16.44h-3.35l-9.13-16.44c-.33-.55-.66-1.32-.71-1.54,0,.17.17,1.43.17,2.75v23.15H4.58V30.12h8.63l10.83,19.58c.38.71.71,1.65.77,1.81,0-.11.33-1.1.71-1.81l10.23-19.58h8.96v40.14h-8.8Z"/><path class="cls-4" d="m77.4,70.27l-3.08-10.12h-12.21l-3.13,10.12h-9.29l14.35-40.14h8.47l14.57,40.14h-9.68Zm-8.25-27.33c-.39-1.26-.83-2.86-.88-3.19-.06.17-.44,1.81-.83,3.19l-3.02,9.79h7.7l-2.97-9.79Z"/><path class="cls-4" d="m104.19,70.27h-12.15V30.12h12.15c11.44,0,20.9,7.04,20.9,20.02s-10.23,20.13-20.9,20.13Zm0-32.72h-3.35v25.3h3.35c7.48,0,11.82-5.94,11.82-12.7s-4.78-12.59-11.82-12.59Z"/><path class="cls-4" d="m131.41,70.27V30.12h23.37v7.42h-14.57v9.4h13.53v7.42h-13.53v8.47h15.4v7.42h-24.2Z"/></g><g><path class="cls-4" d="m284.88,46.06l-.76-10.08c-.07,1.09-.25,2.16-.46,3.23l-1.36,6.84h-2.33l-1.43-6.34c-.16-.69-.32-1.39-.39-2.1l-.19-1.64-.49,10.08h-3.26l1.34-14h4.02l1.5,8.27,1.22-8.27h4.11l1.59,14h-3.12Z"/><path class="cls-4" d="m296.06,46.06l-.58-2.35h-3.07l-.55,2.35h-3.05l3.6-14h3.19l3.7,14h-3.23Zm-1.04-4.51c-.32-1.34-.65-2.67-.88-4.03-.09-.61-.18-1.24-.25-1.85-.14,1.97-.58,3.93-1.02,5.88h2.15Z"/><path class="cls-4" d="m306.91,35.23c-.62-.48-1.34-.9-2.2-.9-.9,0-1.52.55-1.52,1.36,0,2.41,4.62,2.37,4.62,6.28,0,2.41-1.59,4.33-4.39,4.33-.95,0-1.87-.23-2.66-.71v-2.65c.69.42,1.41.76,2.26.76,1.04,0,1.8-.59,1.8-1.55,0-.25-.05-.48-.16-.71-.28-.52-1.13-.99-1.64-1.3-1.73-1.09-2.84-2.1-2.84-4.14,0-2.2,1.41-4.14,4.02-4.14,1.04,0,1.8.21,2.7.67v2.71Z"/><path class="cls-4" d="m315.69,35.23c-.62-.48-1.34-.9-2.19-.9-.9,0-1.52.55-1.52,1.36,0,2.41,4.62,2.37,4.62,6.28,0,2.41-1.59,4.33-4.39,4.33-.95,0-1.87-.23-2.66-.71v-2.65c.69.42,1.41.76,2.26.76,1.04,0,1.8-.59,1.8-1.55,0-.25-.05-.48-.16-.71-.28-.52-1.13-.99-1.64-1.3-1.73-1.09-2.84-2.1-2.84-4.14,0-2.2,1.41-4.14,4.02-4.14,1.04,0,1.8.21,2.7.67v2.71Z"/><path class="cls-4" d="m324.72,46.06l-.58-2.35h-3.07l-.55,2.35h-3.05l3.6-14h3.19l3.7,14h-3.23Zm-1.04-4.51c-.32-1.34-.65-2.67-.88-4.03-.09-.61-.18-1.24-.25-1.85-.14,1.97-.58,3.93-1.02,5.88h2.15Z"/><path class="cls-4" d="m336.57,45.77c-.67.34-1.27.44-2.1.44-1.48,0-2.61-.31-3.65-1.26-1.09-.99-2.08-2.71-2.08-5.67,0-1.41.18-4.09,2.22-5.96,1.27-1.15,2.66-1.41,3.7-1.41.69,0,1.32.15,1.92.4v2.86c-.58-.48-1.2-.61-1.69-.61-.81,0-1.34.31-1.69.63-.83.76-1.27,2.2-1.27,4.01,0,.36,0,2.58,1.09,3.67.35.36.9.67,1.73.67.51,0,1.2-.15,1.83-.67v2.9Z"/><path class="cls-4" d="m344.89,46.06v-6.19h-3.07v6.19h-3.05v-14h3.05v5.19h3.07v-5.19h3.05v14h-3.05Z"/><path class="cls-4" d="m359.7,42.49c0,.8-.05,1.43-.51,2.14-.83,1.28-2.56,1.66-4.09,1.66-2.52,0-4.53-1.11-4.53-3.59v-10.65h3.05v9.3c0,1.05-.05,2.41,1.53,2.41s1.5-1.24,1.5-2.29v-9.43h3.05v10.44Z"/><path class="cls-4" d="m368.68,35.23c-.62-.48-1.34-.9-2.2-.9-.9,0-1.52.55-1.52,1.36,0,2.41,4.62,2.37,4.62,6.28,0,2.41-1.59,4.33-4.39,4.33-.95,0-1.87-.23-2.66-.71v-2.65c.69.42,1.41.76,2.26.76,1.04,0,1.8-.59,1.8-1.55,0-.25-.05-.48-.16-.71-.28-.52-1.13-.99-1.64-1.3-1.73-1.09-2.84-2.1-2.84-4.14,0-2.2,1.41-4.14,4.02-4.14,1.04,0,1.8.21,2.7.67v2.71Z"/><path class="cls-4" d="m371.59,46.06v-14h6.12v2.6h-3.07v3.02h2.7v2.65h-2.7v3.15h3.12v2.58h-6.17Z"/><path class="cls-4" d="m384.74,34.62v11.44h-3.05v-11.44h-2.38v-2.56h7.81v2.56h-2.38Z"/><path class="cls-4" d="m393.72,34.62v11.44h-3.05v-11.44h-2.38v-2.56h7.81v2.56h-2.38Z"/><path class="cls-4" d="m404.25,35.23c-.62-.48-1.34-.9-2.2-.9-.9,0-1.52.55-1.52,1.36,0,2.41,4.62,2.37,4.62,6.28,0,2.41-1.59,4.33-4.39,4.33-.95,0-1.87-.23-2.66-.71v-2.65c.69.42,1.41.76,2.26.76,1.04,0,1.8-.59,1.8-1.55,0-.25-.05-.48-.16-.71-.28-.52-1.13-.99-1.64-1.3-1.73-1.09-2.84-2.1-2.84-4.14,0-2.2,1.41-4.14,4.02-4.14,1.04,0,1.8.21,2.7.67v2.71Z"/><path class="cls-4" d="m277.34,56.06c1.13,0,2.08.04,3.12.48,2.75,1.13,3.53,4.09,3.53,6.59,0,3.78-1.57,6.93-6.24,6.93h-2.98v-14h2.56Zm.58,11.44c2.43.02,3.03-2.65,3.03-4.39,0-1.39-.35-3.19-1.57-4.12-.49-.38-.92-.46-1.55-.48v8.99h.09Z"/><path class="cls-4" d="m286.28,70.06v-14h6.12v2.6h-3.07v3.02h2.7v2.65h-2.7v3.15h3.12v2.58h-6.17Z"/><path class="cls-4" d="m297.76,58.64v2.98h2.8v2.67h-2.8v5.77h-3.05v-14h6.14v2.58h-3.1Z"/><path class="cls-4" d="m302.99,70.06v-14h6.12v2.6h-3.07v3.02h2.7v2.65h-2.7v3.15h3.12v2.58h-6.17Z"/><path class="cls-4" d="m318.09,70.06l-3.79-8.44c.12.52.16,1.07.16,1.6v6.84h-3.05v-14h2.89l3.79,8.46c-.14-.63-.23-1.26-.23-1.89v-6.57h3.1v14h-2.86Z"/><path class="cls-4" d="m329.94,59.23c-.62-.48-1.34-.9-2.2-.9-.9,0-1.52.55-1.52,1.36,0,2.41,4.62,2.37,4.62,6.28,0,2.41-1.59,4.33-4.39,4.33-.95,0-1.87-.23-2.66-.71v-2.65c.69.42,1.41.76,2.26.76,1.04,0,1.8-.59,1.8-1.55,0-.25-.05-.48-.16-.71-.28-.52-1.13-.99-1.64-1.3-1.73-1.09-2.84-2.1-2.84-4.14,0-2.2,1.41-4.14,4.02-4.14,1.04,0,1.8.21,2.7.67v2.71Z"/><path class="cls-4" d="m332.85,70.06v-14h6.12v2.6h-3.07v3.02h2.7v2.65h-2.7v3.15h3.12v2.58h-6.17Z"/><path class="cls-4" d="m349.95,58.64v2.98h2.8v2.67h-2.8v5.77h-3.05v-14h6.14v2.58h-3.1Z"/><path class="cls-4" d="m364.25,68.32c-.9,1.15-2.43,1.97-4.02,1.97s-3.1-.82-4.02-1.97c-1.18-1.47-1.39-3.49-1.39-5.25s.21-3.76,1.39-5.27c.9-1.18,2.45-1.95,4.02-1.95s3.1.8,4.02,1.95c1.18,1.47,1.39,3.51,1.39,5.27s-.21,3.74-1.39,5.25Zm-4.02-9.93c-2.01,0-2.17,3.34-2.17,4.62s.16,4.62,2.17,4.62,2.17-3.34,2.17-4.62-.16-4.62-2.17-4.62Z"/><path class="cls-4" d="m373.67,70.06l-2.7-6.45v6.45h-3.05v-14h3.3c1.13,0,2.38.08,3.35.67,1.22.73,1.83,2.1,1.83,3.4,0,1.6-.69,2.73-2.19,3.57l2.68,6.36h-3.21Zm-2.7-7.98c.16.02.35.02.51.02,1.32,0,1.96-.82,1.96-1.95s-.55-1.91-1.89-1.91h-.58v3.84Z"/><path class="cls-4" d="m384.69,70.06v-14h6.12v2.6h-3.07v3.02h2.7v2.65h-2.7v3.15h3.12v2.58h-6.17Z"/><path class="cls-4" d="m398.87,70.06h-2.5l-4.46-14h3.28l1.64,5.42c.37,1.24.6,2.52.76,3.8.12-1.28.28-2.56.67-3.8l1.69-5.42h3.19l-4.27,14Z"/><path class="cls-4" d="m404.58,70.06v-14h3.05v14h-3.05Z"/><path class="cls-4" d="m417.74,69.77c-.67.34-1.27.44-2.1.44-1.48,0-2.61-.31-3.65-1.26-1.09-.99-2.08-2.71-2.08-5.67,0-1.41.18-4.09,2.22-5.96,1.27-1.15,2.66-1.41,3.7-1.41.69,0,1.32.15,1.92.4v2.86c-.58-.48-1.2-.61-1.69-.61-.81,0-1.34.31-1.69.63-.83.76-1.27,2.2-1.27,4.01,0,.36,0,2.58,1.08,3.67.35.36.9.67,1.73.67.51,0,1.2-.15,1.82-.67v2.9Z"/><path class="cls-4" d="m424.65,58.62v11.44h-3.05v-11.44h-2.38v-2.56h7.81v2.56h-2.38Z"/><path class="cls-4" d="m428.46,70.06v-14h3.05v14h-3.05Z"/><path class="cls-4" d="m443.22,68.32c-.9,1.15-2.43,1.97-4.02,1.97s-3.1-.82-4.02-1.97c-1.18-1.47-1.39-3.49-1.39-5.25s.21-3.76,1.39-5.27c.9-1.18,2.45-1.95,4.02-1.95s3.1.8,4.02,1.95c1.18,1.47,1.39,3.51,1.39,5.27s-.21,3.74-1.39,5.25Zm-4.02-9.93c-2.01,0-2.17,3.34-2.17,4.62s.16,4.62,2.17,4.62,2.17-3.34,2.17-4.62-.16-4.62-2.17-4.62Z"/><path class="cls-4" d="m453.57,70.06l-3.79-8.44c.12.52.16,1.07.16,1.6v6.84h-3.05v-14h2.89l3.79,8.46c-.14-.63-.23-1.26-.23-1.89v-6.57h3.1v14h-2.86Z"/></g><g><path class="cls-3" d="m250.38,29.43L215.62,3.86c-.76-.6-1.81-.62-2.59-.04l-34.9,25.57c-.56.45-.84.72-.86,1.21v39.42c.08.88,1.65,1.54,2.53,1.54h42.32l-.85-25.14h17.62l.85,25.14h10.71c.88,0,.75-.66.82-1.54V31.07c0-.8-.21-1.11-.9-1.64Z"/><rect class="cls-1" x="188.11" y="30.44" width="11.23" height="13.31"/><rect class="cls-1" x="202.74" y="30.44" width="12.15" height="13.31"/></g></svg>