<?xml version="1.0" encoding="UTF-8" standalone="no"?>
<svg
   id="Layer_1"
   viewBox="0 0 74.000001 68.322784"
   version="1.1"
   sodipodi:docname="MADE-favicon.svg"
   width="74"
   height="68.322784"
   inkscape:version="1.2.1 (9c6d41e410, 2022-07-14)"
   xmlns:inkscape="http://www.inkscape.org/namespaces/inkscape"
   xmlns:sodipodi="http://sodipodi.sourceforge.net/DTD/sodipodi-0.dtd"
   xmlns="http://www.w3.org/2000/svg"
   xmlns:svg="http://www.w3.org/2000/svg">
  <sodipodi:namedview
     id="namedview91"
     pagecolor="#ffffff"
     bordercolor="#000000"
     borderopacity="0.25"
     inkscape:showpageshadow="2"
     inkscape:pageopacity="0.0"
     inkscape:pagecheckerboard="0"
     inkscape:deskcolor="#d1d1d1"
     showgrid="false"
     inkscape:zoom="2.8449101"
     inkscape:cx="210.19997"
     inkscape:cy="33.920229"
     inkscape:window-width="1920"
     inkscape:window-height="1001"
     inkscape:window-x="-9"
     inkscape:window-y="-9"
     inkscape:window-maximized="1"
     inkscape:current-layer="Layer_1" />
  <defs
     id="defs4">
    <style
       id="style2">.cls-1{fill:#ffde17;}.cls-2{fill:#fbb040;}.cls-3{fill:#b93739;}.cls-4{fill:#414042;}</style>
  </defs>
  <polygon
     class="cls-2"
     points="221.13,46.23 238.75,46.23 239.6,71.72 221.13,63.18 "
     id="polygon6"
     transform="translate(-177.27,-3.397214)" />
  <g
     id="g88"
     transform="translate(-177.27,-3.397214)">
    <path
       class="cls-3"
       d="M 250.38,29.43 215.62,3.86 c -0.76,-0.6 -1.81,-0.62 -2.59,-0.04 l -34.9,25.57 c -0.56,0.45 -0.84,0.72 -0.86,1.21 v 39.42 c 0.08,0.88 1.65,1.54 2.53,1.54 h 42.32 l -0.85,-25.14 h 17.62 l 0.85,25.14 h 10.71 c 0.88,0 0.75,-0.66 0.82,-1.54 V 31.07 c 0,-0.8 -0.21,-1.11 -0.9,-1.64 z"
       id="path82" />
    <rect
       class="cls-1"
       x="188.11"
       y="30.440001"
       width="11.23"
       height="13.31"
       id="rect84" />
    <rect
       class="cls-1"
       x="202.74001"
       y="30.440001"
       width="12.15"
       height="13.31"
       id="rect86" />
  </g>
</svg>
