<?xml version="1.0" encoding="UTF-8"?><svg id="Layer_1" xmlns="http://www.w3.org/2000/svg" viewBox="0 0 162.29 47.21"><defs><style>.cls-1{fill:#fff;}.cls-2{fill:#fbb040;}.cls-3{fill:#b93739;}</style></defs><g><path class="cls-1" d="m24.26,43.5v-14.27c0-.81.07-1.59.1-1.69-.03.1-.24.58-.44.95l-5.52,10.13h-2.07l-5.63-10.13c-.2-.34-.41-.81-.44-.95,0,.1.1.88.1,1.69v14.27h-5.42v-24.74h5.32l6.68,12.06c.24.44.44,1.02.47,1.12,0-.07.2-.68.44-1.12l6.3-12.06h5.52v24.74h-5.42Z"/><path class="cls-1" d="m49.81,43.5l-1.9-6.24h-7.52l-1.93,6.24h-5.73l8.85-24.74h5.22l8.98,24.74h-5.96Zm-5.08-16.84c-.24-.78-.51-1.76-.54-1.97-.03.1-.27,1.12-.51,1.97l-1.86,6.03h4.74l-1.83-6.03Z"/><path class="cls-1" d="m66.3,43.5h-7.49v-24.74h7.49c7.05,0,12.88,4.34,12.88,12.34s-6.3,12.4-12.88,12.4Zm0-20.16h-2.07v15.59h2.07c4.61,0,7.29-3.66,7.29-7.83s-2.95-7.76-7.29-7.76Z"/><path class="cls-1" d="m83.08,43.5v-24.74h14.4v4.58h-8.98v5.79h8.34v4.58h-8.34v5.22h9.49v4.58h-14.91Z"/></g><g><polygon class="cls-2" points="150.7 44.39 138.68 38.84 138.38 28.49 150.13 28.49 150.7 44.39"/><g><path class="cls-1" d="m156.82,18.7l-21.11-15.53c-.46-.37-1.1-.38-1.57-.02l-21.19,15.53c-.34.27-.51.44-.52.73v23.94c.05.53,1,.93,1.53.93h25.7l-.52-15.27h10.7l.52,15.27h6.51c.53,0,.45-.4.5-.93v-23.65c0-.48-.13-.67-.54-.99Z"/><rect class="cls-3" x="119.01" y="19.32" width="6.82" height="8.08"/><rect class="cls-3" x="127.89" y="19.32" width="7.38" height="8.08"/></g></g></svg>