<?xml version="1.0" encoding="UTF-8"?><svg id="Layer_1" xmlns="http://www.w3.org/2000/svg" viewBox="0 0 488.54 46.79"><defs><style>.cls-1{fill:#fff;}.cls-2{fill:#fbb040;}.cls-3{fill:#b93739;}</style></defs><g><path class="cls-1" d="m23.18,41.55v-12.99c0-.74.06-1.45.09-1.54-.03.09-.22.52-.4.86l-5.03,9.22h-1.88l-5.12-9.22c-.19-.31-.37-.74-.4-.86,0,.09.09.8.09,1.54v12.99h-4.94v-22.52h4.84l6.08,10.98c.22.4.4.93.43,1.02,0-.06.19-.62.4-1.02l5.74-10.98h5.03v22.52h-4.94Z"/><path class="cls-1" d="m46.45,41.55l-1.73-5.68h-6.85l-1.76,5.68h-5.21l8.05-22.52h4.75l8.18,22.52h-5.43Zm-4.63-15.33c-.22-.71-.46-1.6-.49-1.79-.03.09-.25,1.02-.46,1.79l-1.7,5.49h4.32l-1.67-5.49Z"/><path class="cls-1" d="m61.48,41.55h-6.82v-22.52h6.82c6.42,0,11.72,3.95,11.72,11.23s-5.74,11.29-11.72,11.29Zm0-18.36h-1.88v14.19h1.88c4.2,0,6.63-3.33,6.63-7.13s-2.68-7.07-6.63-7.07Z"/><path class="cls-1" d="m76.76,41.55v-22.52h13.11v4.17h-8.18v5.28h7.59v4.17h-7.59v4.75h8.64v4.17h-13.58Z"/></g><g><polygon class="cls-2" points="138.35 42.36 127.4 37.3 127.13 27.88 137.83 27.88 138.35 42.36"/><g><path class="cls-1" d="m143.92,18.96l-19.23-14.14c-.42-.33-1-.34-1.43-.02l-19.3,14.14c-.31.25-.46.4-.47.67v21.8c.04.48.91.85,1.4.85h23.41l-.47-13.91h9.75l.47,13.91h5.93c.48,0,.41-.37.46-.85v-21.54c0-.44-.12-.61-.5-.9Z"/><rect class="cls-3" x="109.48" y="19.52" width="6.21" height="7.36"/><rect class="cls-3" x="117.58" y="19.52" width="6.72" height="7.36"/></g></g><g><path class="cls-1" d="m175.82,41.33l-.76-9.6c-.07,1.04-.25,2.06-.46,3.08l-1.36,6.52h-2.32l-1.43-6.04c-.16-.66-.32-1.32-.39-2l-.18-1.56-.48,9.6h-3.24l1.33-13.34h4l1.49,7.88,1.22-7.88h4.09l1.59,13.34h-3.1Z"/><path class="cls-1" d="m186.95,41.33l-.58-2.24h-3.06l-.55,2.24h-3.04l3.59-13.34h3.17l3.68,13.34h-3.22Zm-1.04-4.3c-.32-1.28-.64-2.54-.87-3.84-.09-.58-.18-1.18-.25-1.76-.14,1.88-.57,3.74-1.01,5.6h2.14Z"/><path class="cls-1" d="m197.76,31.01c-.62-.46-1.33-.86-2.18-.86-.9,0-1.52.52-1.52,1.3,0,2.3,4.6,2.26,4.6,5.98,0,2.3-1.59,4.12-4.37,4.12-.94,0-1.86-.22-2.64-.68v-2.52c.69.4,1.4.72,2.25.72,1.04,0,1.79-.56,1.79-1.48,0-.24-.05-.46-.16-.68-.28-.5-1.13-.94-1.63-1.24-1.72-1.04-2.83-2-2.83-3.94,0-2.1,1.4-3.94,4-3.94,1.04,0,1.79.2,2.69.64v2.58Z"/><path class="cls-1" d="m206.5,31.01c-.62-.46-1.33-.86-2.18-.86-.9,0-1.52.52-1.52,1.3,0,2.3,4.6,2.26,4.6,5.98,0,2.3-1.59,4.12-4.37,4.12-.94,0-1.86-.22-2.64-.68v-2.52c.69.4,1.4.72,2.25.72,1.03,0,1.79-.56,1.79-1.48,0-.24-.05-.46-.16-.68-.28-.5-1.13-.94-1.63-1.24-1.72-1.04-2.83-2-2.83-3.94,0-2.1,1.4-3.94,4-3.94,1.03,0,1.79.2,2.69.64v2.58Z"/><path class="cls-1" d="m215.49,41.33l-.58-2.24h-3.06l-.55,2.24h-3.04l3.59-13.34h3.17l3.68,13.34h-3.22Zm-1.04-4.3c-.32-1.28-.64-2.54-.87-3.84-.09-.58-.18-1.18-.25-1.76-.14,1.88-.58,3.74-1.01,5.6h2.14Z"/><path class="cls-1" d="m227.29,41.05c-.67.32-1.26.42-2.09.42-1.47,0-2.6-.3-3.63-1.2-1.08-.94-2.07-2.58-2.07-5.4,0-1.34.18-3.9,2.21-5.68,1.27-1.1,2.64-1.34,3.68-1.34.69,0,1.31.14,1.91.38v2.72c-.57-.46-1.2-.58-1.68-.58-.8,0-1.33.3-1.68.6-.83.72-1.27,2.1-1.27,3.82,0,.34,0,2.46,1.08,3.5.34.34.9.64,1.72.64.51,0,1.2-.14,1.82-.64v2.76Z"/><path class="cls-1" d="m235.57,41.33v-5.9h-3.06v5.9h-3.04v-13.34h3.04v4.94h3.06v-4.94h3.04v13.34h-3.04Z"/><path class="cls-1" d="m250.32,37.93c0,.76-.05,1.36-.51,2.04-.83,1.22-2.55,1.58-4.07,1.58-2.51,0-4.51-1.06-4.51-3.42v-10.14h3.04v8.86c0,1-.05,2.3,1.52,2.3s1.5-1.18,1.5-2.18v-8.98h3.04v9.94Z"/><path class="cls-1" d="m259.26,31.01c-.62-.46-1.33-.86-2.18-.86-.9,0-1.52.52-1.52,1.3,0,2.3,4.6,2.26,4.6,5.98,0,2.3-1.59,4.12-4.37,4.12-.94,0-1.86-.22-2.64-.68v-2.52c.69.4,1.4.72,2.25.72,1.04,0,1.79-.56,1.79-1.48,0-.24-.05-.46-.16-.68-.28-.5-1.13-.94-1.63-1.24-1.72-1.04-2.83-2-2.83-3.94,0-2.1,1.4-3.94,4-3.94,1.04,0,1.79.2,2.69.64v2.58Z"/><path class="cls-1" d="m262.16,41.33v-13.34h6.09v2.48h-3.06v2.88h2.69v2.52h-2.69v3h3.1v2.46h-6.14Z"/><path class="cls-1" d="m275.25,30.43v10.9h-3.04v-10.9h-2.37v-2.44h7.77v2.44h-2.37Z"/><path class="cls-1" d="m284.2,30.43v10.9h-3.04v-10.9h-2.37v-2.44h7.77v2.44h-2.37Z"/><path class="cls-1" d="m294.68,31.01c-.62-.46-1.33-.86-2.18-.86-.9,0-1.52.52-1.52,1.3,0,2.3,4.6,2.26,4.6,5.98,0,2.3-1.59,4.12-4.37,4.12-.94,0-1.86-.22-2.64-.68v-2.52c.69.4,1.4.72,2.25.72,1.04,0,1.79-.56,1.79-1.48,0-.24-.05-.46-.16-.68-.28-.5-1.13-.94-1.63-1.24-1.72-1.04-2.83-2-2.83-3.94,0-2.1,1.4-3.94,4-3.94,1.04,0,1.79.2,2.69.64v2.58Z"/><path class="cls-1" d="m305.72,27.99c1.13,0,2.07.04,3.1.46,2.74,1.08,3.52,3.9,3.52,6.28,0,3.6-1.56,6.6-6.21,6.6h-2.97v-13.34h2.55Zm.58,10.9c2.41.02,3.01-2.52,3.01-4.18,0-1.32-.35-3.04-1.56-3.92-.48-.36-.92-.44-1.54-.46v8.56h.09Z"/><path class="cls-1" d="m314.62,41.33v-13.34h6.09v2.48h-3.06v2.88h2.69v2.52h-2.69v3h3.1v2.46h-6.14Z"/><path class="cls-1" d="m326.05,30.45v2.84h2.78v2.54h-2.78v5.5h-3.04v-13.34h6.12v2.46h-3.08Z"/><path class="cls-1" d="m331.25,41.33v-13.34h6.09v2.48h-3.06v2.88h2.69v2.52h-2.69v3h3.1v2.46h-6.14Z"/><path class="cls-1" d="m346.29,41.33l-3.77-8.04c.12.5.16,1.02.16,1.52v6.52h-3.04v-13.34h2.87l3.77,8.06c-.14-.6-.23-1.2-.23-1.8v-6.26h3.08v13.34h-2.85Z"/><path class="cls-1" d="m358.09,31.01c-.62-.46-1.33-.86-2.18-.86-.9,0-1.52.52-1.52,1.3,0,2.3,4.6,2.26,4.6,5.98,0,2.3-1.59,4.12-4.37,4.12-.94,0-1.86-.22-2.64-.68v-2.52c.69.4,1.4.72,2.25.72,1.04,0,1.79-.56,1.79-1.48,0-.24-.05-.46-.16-.68-.28-.5-1.13-.94-1.63-1.24-1.72-1.04-2.83-2-2.83-3.94,0-2.1,1.4-3.94,4-3.94,1.04,0,1.79.2,2.69.64v2.58Z"/><path class="cls-1" d="m360.99,41.33v-13.34h6.09v2.48h-3.06v2.88h2.69v2.52h-2.69v3h3.1v2.46h-6.14Z"/><path class="cls-1" d="m378.01,30.45v2.84h2.78v2.54h-2.78v5.5h-3.04v-13.34h6.12v2.46h-3.08Z"/><path class="cls-1" d="m392.25,39.67c-.9,1.1-2.41,1.88-4,1.88s-3.08-.78-4-1.88c-1.17-1.4-1.38-3.32-1.38-5s.21-3.58,1.38-5.02c.9-1.12,2.44-1.86,4-1.86s3.08.76,4,1.86c1.17,1.4,1.38,3.34,1.38,5.02s-.21,3.56-1.38,5Zm-4-9.46c-2,0-2.16,3.18-2.16,4.4s.16,4.4,2.16,4.4,2.16-3.18,2.16-4.4-.16-4.4-2.16-4.4Z"/><path class="cls-1" d="m401.63,41.33l-2.69-6.14v6.14h-3.04v-13.34h3.29c1.13,0,2.37.08,3.33.64,1.22.7,1.82,2,1.82,3.24,0,1.52-.69,2.6-2.18,3.4l2.67,6.06h-3.2Zm-2.69-7.6c.16.02.34.02.51.02,1.31,0,1.95-.78,1.95-1.86s-.55-1.82-1.89-1.82h-.57v3.66Z"/><path class="cls-1" d="m412.6,41.33v-13.34h6.09v2.48h-3.06v2.88h2.69v2.52h-2.69v3h3.1v2.46h-6.14Z"/><path class="cls-1" d="m426.72,41.33h-2.48l-4.44-13.34h3.27l1.63,5.16c.37,1.18.6,2.4.76,3.62.11-1.22.28-2.44.67-3.62l1.68-5.16h3.17l-4.25,13.34Z"/><path class="cls-1" d="m432.4,41.33v-13.34h3.04v13.34h-3.04Z"/><path class="cls-1" d="m445.51,41.05c-.67.32-1.26.42-2.09.42-1.47,0-2.6-.3-3.63-1.2-1.08-.94-2.07-2.58-2.07-5.4,0-1.34.18-3.9,2.21-5.68,1.26-1.1,2.64-1.34,3.68-1.34.69,0,1.31.14,1.91.38v2.72c-.58-.46-1.2-.58-1.68-.58-.8,0-1.33.3-1.68.6-.83.72-1.26,2.1-1.26,3.82,0,.34,0,2.46,1.08,3.5.35.34.9.64,1.72.64.51,0,1.2-.14,1.82-.64v2.76Z"/><path class="cls-1" d="m452.39,30.43v10.9h-3.04v-10.9h-2.37v-2.44h7.77v2.44h-2.37Z"/><path class="cls-1" d="m456.19,41.33v-13.34h3.04v13.34h-3.04Z"/><path class="cls-1" d="m470.88,39.67c-.9,1.1-2.41,1.88-4,1.88s-3.08-.78-4-1.88c-1.17-1.4-1.38-3.32-1.38-5s.21-3.58,1.38-5.02c.9-1.12,2.44-1.86,4-1.86s3.08.76,4,1.86c1.17,1.4,1.38,3.34,1.38,5.02s-.21,3.56-1.38,5Zm-4-9.46c-2,0-2.16,3.18-2.16,4.4s.16,4.4,2.16,4.4,2.16-3.18,2.16-4.4-.16-4.4-2.16-4.4Z"/><path class="cls-1" d="m481.19,41.33l-3.77-8.04c.12.5.16,1.02.16,1.52v6.52h-3.04v-13.34h2.88l3.77,8.06c-.14-.6-.23-1.2-.23-1.8v-6.26h3.08v13.34h-2.85Z"/></g></svg>