<?xml version="1.0" encoding="UTF-8"?><svg id="Layer_1" xmlns="http://www.w3.org/2000/svg" viewBox="0 0 326.25 104.5"><defs><style>.cls-1{fill:#ffde17;}.cls-2{fill:#fbb040;}.cls-3{fill:#b93739;}.cls-4{fill:#414042;}</style></defs><g><path class="cls-4" d="m68.97,70.08v-23.15c0-1.32.11-2.58.17-2.75-.06.17-.38.93-.71,1.54l-8.96,16.44h-3.35l-9.13-16.44c-.33-.55-.66-1.32-.71-1.54,0,.17.17,1.43.17,2.75v23.15h-8.8V29.94h8.63l10.83,19.58c.38.71.71,1.65.77,1.81,0-.11.33-1.1.71-1.81l10.23-19.58h8.96v40.14h-8.8Z"/><path class="cls-4" d="m110.44,70.08l-3.08-10.12h-12.21l-3.13,10.12h-9.29l14.35-40.14h8.47l14.57,40.14h-9.68Zm-8.25-27.33c-.39-1.26-.83-2.86-.88-3.19-.06.17-.44,1.81-.83,3.19l-3.02,9.79h7.7l-2.97-9.79Z"/><path class="cls-4" d="m137.22,70.08h-12.15V29.94h12.15c11.44,0,20.9,7.04,20.9,20.02s-10.23,20.13-20.9,20.13Zm0-32.72h-3.35v25.3h3.35c7.48,0,11.82-5.94,11.82-12.7s-4.78-12.59-11.82-12.59Z"/><path class="cls-4" d="m164.45,70.08V29.94h23.37v7.42h-14.57v9.4h13.53v7.42h-13.53v8.47h15.4v7.42h-24.2Z"/></g><g><path class="cls-4" d="m13.85,98.88l-.76-9.6c-.07,1.04-.25,2.06-.46,3.08l-1.36,6.52h-2.32l-1.43-6.04c-.16-.66-.32-1.32-.39-2l-.18-1.56-.48,9.6h-3.24l1.33-13.34h4l1.49,7.88,1.22-7.88h4.09l1.59,13.34h-3.1Z"/><path class="cls-4" d="m24.99,98.88l-.58-2.24h-3.06l-.55,2.24h-3.04l3.59-13.34h3.17l3.68,13.34h-3.22Zm-1.03-4.3c-.32-1.28-.64-2.54-.87-3.84-.09-.58-.18-1.18-.25-1.76-.14,1.88-.57,3.74-1.01,5.6h2.14Z"/><path class="cls-4" d="m35.8,88.56c-.62-.46-1.33-.86-2.18-.86-.9,0-1.52.52-1.52,1.3,0,2.3,4.6,2.26,4.6,5.98,0,2.3-1.59,4.12-4.37,4.12-.94,0-1.86-.22-2.64-.68v-2.52c.69.4,1.4.72,2.25.72,1.03,0,1.79-.56,1.79-1.48,0-.24-.05-.46-.16-.68-.28-.5-1.13-.94-1.63-1.24-1.72-1.04-2.83-2-2.83-3.94,0-2.1,1.4-3.94,4-3.94,1.03,0,1.79.2,2.69.64v2.58Z"/><path class="cls-4" d="m44.54,88.56c-.62-.46-1.33-.86-2.18-.86-.9,0-1.52.52-1.52,1.3,0,2.3,4.6,2.26,4.6,5.98,0,2.3-1.59,4.12-4.37,4.12-.94,0-1.86-.22-2.64-.68v-2.52c.69.4,1.4.72,2.25.72,1.03,0,1.79-.56,1.79-1.48,0-.24-.05-.46-.16-.68-.28-.5-1.13-.94-1.63-1.24-1.72-1.04-2.83-2-2.83-3.94,0-2.1,1.4-3.94,4-3.94,1.03,0,1.79.2,2.69.64v2.58Z"/><path class="cls-4" d="m53.53,98.88l-.58-2.24h-3.06l-.55,2.24h-3.04l3.59-13.34h3.17l3.68,13.34h-3.22Zm-1.04-4.3c-.32-1.28-.64-2.54-.87-3.84-.09-.58-.18-1.18-.25-1.76-.14,1.88-.57,3.74-1.01,5.6h2.14Z"/><path class="cls-4" d="m65.33,98.6c-.67.32-1.26.42-2.09.42-1.47,0-2.6-.3-3.63-1.2-1.08-.94-2.07-2.58-2.07-5.4,0-1.34.18-3.9,2.21-5.68,1.27-1.1,2.64-1.34,3.68-1.34.69,0,1.31.14,1.91.38v2.72c-.57-.46-1.2-.58-1.68-.58-.8,0-1.33.3-1.68.6-.83.72-1.27,2.1-1.27,3.82,0,.34,0,2.46,1.08,3.5.34.34.9.64,1.72.64.51,0,1.2-.14,1.82-.64v2.76Z"/><path class="cls-4" d="m73.61,98.88v-5.9h-3.06v5.9h-3.04v-13.34h3.04v4.94h3.06v-4.94h3.04v13.34h-3.04Z"/><path class="cls-4" d="m88.35,95.48c0,.76-.05,1.36-.51,2.04-.83,1.22-2.55,1.58-4.07,1.58-2.51,0-4.51-1.06-4.51-3.42v-10.14h3.04v8.86c0,1-.05,2.3,1.52,2.3s1.5-1.18,1.5-2.18v-8.98h3.04v9.94Z"/><path class="cls-4" d="m97.3,88.56c-.62-.46-1.33-.86-2.18-.86-.9,0-1.52.52-1.52,1.3,0,2.3,4.6,2.26,4.6,5.98,0,2.3-1.59,4.12-4.37,4.12-.94,0-1.86-.22-2.64-.68v-2.52c.69.4,1.4.72,2.25.72,1.03,0,1.79-.56,1.79-1.48,0-.24-.05-.46-.16-.68-.28-.5-1.13-.94-1.63-1.24-1.72-1.04-2.83-2-2.83-3.94,0-2.1,1.4-3.94,4-3.94,1.03,0,1.79.2,2.69.64v2.58Z"/><path class="cls-4" d="m100.2,98.88v-13.34h6.09v2.48h-3.06v2.88h2.69v2.52h-2.69v3h3.1v2.46h-6.14Z"/><path class="cls-4" d="m113.28,87.98v10.9h-3.04v-10.9h-2.37v-2.44h7.77v2.44h-2.37Z"/><path class="cls-4" d="m122.23,87.98v10.9h-3.04v-10.9h-2.37v-2.44h7.77v2.44h-2.37Z"/><path class="cls-4" d="m132.72,88.56c-.62-.46-1.33-.86-2.18-.86-.9,0-1.52.52-1.52,1.3,0,2.3,4.6,2.26,4.6,5.98,0,2.3-1.59,4.12-4.37,4.12-.94,0-1.86-.22-2.64-.68v-2.52c.69.4,1.4.72,2.25.72,1.03,0,1.79-.56,1.79-1.48,0-.24-.05-.46-.16-.68-.28-.5-1.13-.94-1.63-1.24-1.72-1.04-2.83-2-2.83-3.94,0-2.1,1.4-3.94,4-3.94,1.03,0,1.79.2,2.69.64v2.58Z"/><path class="cls-4" d="m143.76,85.54c1.13,0,2.07.04,3.1.46,2.74,1.08,3.52,3.9,3.52,6.28,0,3.6-1.56,6.6-6.21,6.6h-2.97v-13.34h2.55Zm.58,10.9c2.41.02,3.01-2.52,3.01-4.18,0-1.32-.35-3.04-1.56-3.92-.48-.36-.92-.44-1.54-.46v8.56h.09Z"/><path class="cls-4" d="m152.66,98.88v-13.34h6.09v2.48h-3.06v2.88h2.69v2.52h-2.69v3h3.1v2.46h-6.14Z"/><path class="cls-4" d="m164.09,88v2.84h2.78v2.54h-2.78v5.5h-3.04v-13.34h6.12v2.46h-3.08Z"/><path class="cls-4" d="m169.29,98.88v-13.34h6.09v2.48h-3.06v2.88h2.69v2.52h-2.69v3h3.1v2.46h-6.14Z"/><path class="cls-4" d="m184.33,98.88l-3.77-8.04c.11.5.16,1.02.16,1.52v6.52h-3.04v-13.34h2.87l3.77,8.06c-.14-.6-.23-1.2-.23-1.8v-6.26h3.08v13.34h-2.85Z"/><path class="cls-4" d="m196.13,88.56c-.62-.46-1.33-.86-2.18-.86-.9,0-1.52.52-1.52,1.3,0,2.3,4.6,2.26,4.6,5.98,0,2.3-1.59,4.12-4.37,4.12-.94,0-1.86-.22-2.64-.68v-2.52c.69.4,1.4.72,2.25.72,1.03,0,1.79-.56,1.79-1.48,0-.24-.05-.46-.16-.68-.28-.5-1.13-.94-1.63-1.24-1.72-1.04-2.83-2-2.83-3.94,0-2.1,1.4-3.94,4-3.94,1.03,0,1.79.2,2.69.64v2.58Z"/><path class="cls-4" d="m199.03,98.88v-13.34h6.09v2.48h-3.06v2.88h2.69v2.52h-2.69v3h3.1v2.46h-6.14Z"/><path class="cls-4" d="m216.05,88v2.84h2.78v2.54h-2.78v5.5h-3.04v-13.34h6.12v2.46h-3.08Z"/><path class="cls-4" d="m230.28,97.22c-.9,1.1-2.41,1.88-4,1.88s-3.08-.78-4-1.88c-1.17-1.4-1.38-3.32-1.38-5s.21-3.58,1.38-5.02c.9-1.12,2.44-1.86,4-1.86s3.08.76,4,1.86c1.17,1.4,1.38,3.34,1.38,5.02s-.21,3.56-1.38,5Zm-4-9.46c-2,0-2.16,3.18-2.16,4.4s.16,4.4,2.16,4.4,2.16-3.18,2.16-4.4-.16-4.4-2.16-4.4Z"/><path class="cls-4" d="m239.67,98.88l-2.69-6.14v6.14h-3.04v-13.34h3.29c1.13,0,2.37.08,3.33.64,1.22.7,1.82,2,1.82,3.24,0,1.52-.69,2.6-2.18,3.4l2.67,6.06h-3.2Zm-2.69-7.6c.16.02.34.02.51.02,1.31,0,1.95-.78,1.95-1.86s-.55-1.82-1.89-1.82h-.57v3.66Z"/><path class="cls-4" d="m250.64,98.88v-13.34h6.09v2.48h-3.06v2.88h2.69v2.52h-2.69v3h3.1v2.46h-6.14Z"/><path class="cls-4" d="m264.76,98.88h-2.48l-4.44-13.34h3.27l1.63,5.16c.37,1.18.6,2.4.76,3.62.11-1.22.28-2.44.67-3.62l1.68-5.16h3.17l-4.25,13.34Z"/><path class="cls-4" d="m270.44,98.88v-13.34h3.04v13.34h-3.04Z"/><path class="cls-4" d="m283.55,98.6c-.67.32-1.26.42-2.09.42-1.47,0-2.6-.3-3.63-1.2-1.08-.94-2.07-2.58-2.07-5.4,0-1.34.18-3.9,2.21-5.68,1.26-1.1,2.64-1.34,3.68-1.34.69,0,1.31.14,1.91.38v2.72c-.58-.46-1.2-.58-1.68-.58-.8,0-1.33.3-1.68.6-.83.72-1.26,2.1-1.26,3.82,0,.34,0,2.46,1.08,3.5.35.34.9.64,1.72.64.51,0,1.2-.14,1.82-.64v2.76Z"/><path class="cls-4" d="m290.43,87.98v10.9h-3.04v-10.9h-2.37v-2.44h7.77v2.44h-2.37Z"/><path class="cls-4" d="m294.22,98.88v-13.34h3.04v13.34h-3.04Z"/><path class="cls-4" d="m308.92,97.22c-.9,1.1-2.41,1.88-4,1.88s-3.08-.78-4-1.88c-1.17-1.4-1.38-3.32-1.38-5s.21-3.58,1.38-5.02c.9-1.12,2.44-1.86,4-1.86s3.08.76,4,1.86c1.17,1.4,1.38,3.34,1.38,5.02s-.21,3.56-1.38,5Zm-4-9.46c-2,0-2.16,3.18-2.16,4.4s.16,4.4,2.16,4.4,2.16-3.18,2.16-4.4-.16-4.4-2.16-4.4Z"/><path class="cls-4" d="m319.22,98.88l-3.77-8.04c.12.5.16,1.02.16,1.52v6.52h-3.04v-13.34h2.88l3.77,8.06c-.14-.6-.23-1.2-.23-1.8v-6.26h3.08v13.34h-2.85Z"/></g><polygon class="cls-2" points="277.86 69.73 257.86 60.48 257.86 42.14 276.94 42.14 277.86 69.73"/><g><polygon class="cls-2" points="272.97 71.35 254.5 62.81 254.5 45.87 272.12 45.87 272.97 71.35"/><g><path class="cls-3" d="m283.75,29.07L248.98,3.49c-.76-.6-1.81-.62-2.59-.04l-34.9,25.57c-.56.45-.84.72-.86,1.21v39.42c.08.88,1.65,1.54,2.53,1.54h42.32l-.85-25.14h17.62l.85,25.14h10.71c.88,0,.75-.66.82-1.54V30.7c0-.8-.21-1.11-.9-1.64Z"/><rect class="cls-1" x="221.48" y="30.08" width="11.23" height="13.31"/><rect class="cls-1" x="236.11" y="30.08" width="12.15" height="13.31"/></g></g></svg>